<svg width="" height="24" viewBox="0 0 31 33" fill="none" xmlns="http://www.w3.org/2000/svg">
<path d="M25.1667 13.6705V28.2415C25.1667 28.6575 25.0885 29.0694 24.9367 29.4537C24.7849 29.838 24.5624 30.1872 24.2819 30.4814C24.0014 30.7755 23.6684 31.0088 23.3019 31.168C22.9354 31.3272 22.5425 31.4091 22.1458 31.4091H4.02083C3.21966 31.4091 2.4513 31.0754 1.88478 30.4814C1.31827 29.8873 1 29.0816 1 28.2415V9.23581C1 8.3957 1.31827 7.59001 1.88478 6.99596C2.4513 6.40192 3.21966 6.06819 4.02083 6.06819H16.6691M21.5417 1H30V9.86933M13.0833 18.7387L29.3958 1.63352" stroke="#BC955B" stroke-width="2" stroke-linecap="round" stroke-linejoin="round"/>
</svg>
